<?xml version="1.0" encoding="iso-8859-1"?>
<!-- Generator: Adobe Illustrator 19.0.0, SVG Export Plug-In . SVG Version: 6.00 Build 0)  -->
<svg version="1.1" id="Layer_1" xmlns="http://www.w3.org/2000/svg" xmlns:xlink="http://www.w3.org/1999/xlink" x="0px" y="0px"
	 viewBox="0 0 430 430" style="enable-background:new 0 0 430 430;" xml:space="preserve">
<g id="XMLID_80_">
	<g>
		<g>
			<path d="M215,10.548c-8.466,0-22.801,12.711-35.339,48.534C166.982,95.306,160,143.77,160,195.548v35h40v195h30v-195h40v-35
				c0-51.778-6.982-100.242-19.661-136.466C237.801,23.259,223.466,10.548,215,10.548z"/>
			<path d="M62.972,63.52C22.364,104.128,0,158.119,0,215.548v15h130v-35c0-55.065,7.581-107.05,21.345-146.377
				c7-19.999,14.729-34.421,22.597-44.719C132.157,12.488,93.725,32.767,62.972,63.52z"/>
			<path d="M367.028,63.52c-30.753-30.753-69.185-51.031-110.97-59.067c7.868,10.298,15.597,24.72,22.597,44.719
				C292.419,88.498,300,140.482,300,195.548v35h130v-15C430,158.119,407.636,104.128,367.028,63.52z"/>
		</g>
	</g>
</g>
<g>
</g>
<g>
</g>
<g>
</g>
<g>
</g>
<g>
</g>
<g>
</g>
<g>
</g>
<g>
</g>
<g>
</g>
<g>
</g>
<g>
</g>
<g>
</g>
<g>
</g>
<g>
</g>
<g>
</g>
</svg>
